<?xml version="1.0" encoding="UTF-8" standalone="no"?>
<svg
   xmlns:dc="http://purl.org/dc/elements/1.1/"
   xmlns:cc="http://creativecommons.org/ns#"
   xmlns:rdf="http://www.w3.org/1999/02/22-rdf-syntax-ns#"
   xmlns:svg="http://www.w3.org/2000/svg"
   xmlns="http://www.w3.org/2000/svg"
   xmlns:sodipodi="http://sodipodi.sourceforge.net/DTD/sodipodi-0.dtd"
   xmlns:inkscape="http://www.inkscape.org/namespaces/inkscape"
   width="210mm"
   height="297mm"
   viewBox="0 0 210 297"
   version="1.1"
   id="svg8"
   inkscape:version="1.0.1 (3bc2e813f5, 2020-09-07)"
   sodipodi:docname="drawing.svg">
  <defs
     id="defs2" />
  <sodipodi:namedview
     id="base"
     pagecolor="#ffffff"
     bordercolor="#666666"
     borderopacity="1.0"
     inkscape:pageopacity="0.0"
     inkscape:pageshadow="2"
     inkscape:zoom="2"
     inkscape:cx="1703.1191"
     inkscape:cy="-222.44264"
     inkscape:document-units="mm"
     inkscape:current-layer="layer1"
     inkscape:document-rotation="0"
     showgrid="false"
     showguides="true"
     inkscape:window-width="1920"
     inkscape:window-height="1043"
     inkscape:window-x="3840"
     inkscape:window-y="1080"
     inkscape:window-maximized="1" />
  <metadata
     id="metadata5">
    <rdf:RDF>
      <cc:Work
         rdf:about="">
        <dc:format>image/svg+xml</dc:format>
        <dc:type
           rdf:resource="http://purl.org/dc/dcmitype/StillImage" />
        <dc:title></dc:title>
      </cc:Work>
    </rdf:RDF>
  </metadata>
  <g
     inkscape:label="Layer 1"
     inkscape:groupmode="layer"
     id="layer1">
    <path
       style="fill:none;stroke:#000000;stroke-width:0.264583px;stroke-linecap:butt;stroke-linejoin:miter;stroke-opacity:1"
       d="m 352.93374,155.58115 175.39093,-0.45751"
       id="path24" />
    <text
       xml:space="preserve"
       style="font-style:normal;font-weight:normal;font-size:10.5833px;line-height:1.25;font-family:sans-serif;fill:#000000;fill-opacity:1;stroke:none;stroke-width:0.264583"
       x="88.560242"
       y="11.836529"
       id="text42"><tspan
         sodipodi:role="line"
         id="tspan40"
         x="88.560242"
         y="11.836529"
         style="stroke-width:0.264583" /></text>
    <path
       style="fill:none;stroke:#000000;stroke-width:0.264583px;stroke-linecap:butt;stroke-linejoin:miter;stroke-opacity:1"
       d="m 372.71569,98.978266 -0.16457,70.984444"
       id="path48" />
    <path
       style="fill:none;stroke:#000000;stroke-width:0.264583px;stroke-linecap:butt;stroke-linejoin:miter;stroke-opacity:1"
       d="m 372.86172,129.68911 6.3456,-2.22275 3.13874,5.55491 4.27529,2.15982 3.18728,2.6741 3.60816,-3.41666 3.57502,-6.06048 1.13629,-8.25126 2.0857,-2.07415 1.08227,7.99571 2.15631,1.561 1.12089,-1.4366 1.75619,0.92892 3.80509,-3.7622 3.99875,-11.34777 5.25172,-2.17071 4.20952,5.5279 4.55744,3.33258 0.26388,1.51083 2.60119,-2.88193 3.45586,4.74172 3.14879,-2.58562 4.55468,5.74173 4.33086,0.47229 1.08566,3.38736 3.2238,3.54188 4.20467,-1.49651 4.43044,-8.0665 1.40942,2.90094 4.5154,0.37898 4.03462,1.96244 0.75835,1.76211 3.61219,-2.65097 4.859,-7.0938 2.52862,-18.14258 3.25709,2.23623 3.63463,-8.879402 4.46998,13.334502 4.39454,-1.83164 5.36158,4.61758 3.95044,-0.1458 1.16044,0.97988 3.35953,5.60613 6.05676,-4.26581 6.0334,-1.23508"
       id="path66" />
    <path
       style="fill:none;stroke:#000000;stroke-width:0.264583px;stroke-linecap:butt;stroke-linejoin:miter;stroke-opacity:1"
       d="m 353.00234,262.72775 175.39093,-0.45752"
       id="path24-3" />
    <path
       style="fill:none;stroke:#000000;stroke-width:0.264583px;stroke-linecap:butt;stroke-linejoin:miter;stroke-opacity:1"
       d="m 372.78428,206.12486 -0.16457,70.98445"
       id="path48-6" />
    <path
       style="fill:none;stroke:#000000;stroke-width:0.264583px;stroke-linecap:butt;stroke-linejoin:miter;stroke-opacity:1"
       d="m 372.93031,236.83571 6.3456,-2.22276 3.13874,5.55492 4.27529,2.15982 3.18729,2.67409 3.60816,-3.41665 3.57501,-6.06048 1.13629,-8.25127 2.08571,-2.07415 1.08226,7.99571 2.15631,1.56101 1.12089,-1.4366 1.75619,0.92892 3.80509,-3.7622 3.99875,-11.34778 5.25172,-2.17071 4.20952,5.5279 4.55744,3.33258 0.26388,1.51083 2.6012,-2.88193 3.45586,4.74173 3.14879,-2.58562 4.55467,5.74172 4.33086,0.4723 1.08567,3.38736 3.2238,3.54188 4.20466,-1.49651 4.43044,-8.06651 1.40943,2.90094 4.51539,0.37899 4.03462,1.96243 0.75836,1.76212 3.61219,-2.65098 4.85899,-7.09379 2.52862,-18.14259 3.25709,2.23623 3.63464,-8.8794 4.46998,13.3345 4.39454,-1.83164 5.36158,4.61759 3.95043,-0.14581 1.16045,0.97988 3.35952,5.60614 6.05677,-4.26582 6.0334,-1.23508"
       id="path66-7" />
    <path
       style="fill:none;stroke:#000000;stroke-width:0.264583px;stroke-linecap:butt;stroke-linejoin:miter;stroke-opacity:1"
       d="m 352.07524,363.05587 175.39094,-0.45751"
       id="path24-5" />
    <path
       style="fill:none;stroke:#000000;stroke-width:0.264583px;stroke-linecap:butt;stroke-linejoin:miter;stroke-opacity:1"
       d="m 371.85718,306.45299 -0.16456,70.98444"
       id="path48-3" />
    <path
       style="fill:none;stroke:#000000;stroke-width:0.264583px;stroke-linecap:butt;stroke-linejoin:miter;stroke-opacity:1"
       d="m 372.00322,337.16383 6.3456,-2.22275 3.13873,5.55491 4.2753,2.15982 3.18728,2.6741 3.60816,-3.41666 3.57501,-6.06048 1.1363,-8.25126 2.0857,-2.07415 1.08227,7.99571 2.1563,1.561 1.1209,-1.4366 1.75619,0.92892 3.80508,-3.7622 3.99876,-11.34777 5.25172,-2.17071 4.20952,5.5279 4.55744,3.33258 0.26388,1.51083 2.60119,-2.88193 3.45586,4.74172 3.14879,-2.58562 4.55468,5.74173 4.33086,0.47229 1.08566,3.38736 3.2238,3.54188 4.20467,-1.49651 4.43044,-8.0665 1.40943,2.90094 4.51539,0.37898 4.03462,1.96244 0.75836,1.76211 3.61219,-2.65097 4.85899,-7.0938 2.52862,-18.14258 3.25709,2.23623 3.63464,-8.8794 4.46998,13.3345 4.39454,-1.83164 5.36158,4.61758 3.95043,-0.1458 1.16045,0.97988 3.35952,5.60613 6.05677,-4.26581 6.0334,-1.23508"
       id="path66-5" />
    <path
       style="fill:none;stroke:#000000;stroke-width:0.264583px;stroke-linecap:butt;stroke-linejoin:miter;stroke-opacity:1"
       d="m 352.00634,458.41106 175.39093,-0.45751"
       id="path24-5-6" />
    <path
       style="fill:none;stroke:#000000;stroke-width:0.264583px;stroke-linecap:butt;stroke-linejoin:miter;stroke-opacity:1"
       d="m 371.78828,401.80818 -0.16457,70.98444"
       id="path48-3-2" />
    <path
       style="fill:none;stroke:#000000;stroke-width:0.264583px;stroke-linecap:butt;stroke-linejoin:miter;stroke-opacity:1"
       d="m 371.93431,432.51902 6.3456,-2.22275 3.13874,5.55491 4.27529,2.15982 3.18728,2.6741 3.60816,-3.41666 3.57502,-6.06048 1.13629,-8.25126 2.0857,-2.07415 1.08227,7.99571 2.15631,1.561 1.12089,-1.4366 1.75619,0.92892 3.80509,-3.7622 3.99875,-11.34777 5.25172,-2.17071 4.20952,5.5279 4.55744,3.33258 0.26388,1.51083 2.60119,-2.88193 3.45587,4.74172 3.14879,-2.58562 4.55468,5.74173 4.33085,0.47229 1.08566,3.38736 3.22381,3.54188 4.20466,-1.49651 4.43044,-8.0665 1.40943,2.90094 4.51539,0.37898 4.03462,1.96244 0.75836,1.76211 3.61219,-2.65097 4.85899,-7.0938 2.52862,-18.14258 3.25709,2.23623 3.63464,-8.8794 4.46998,13.3345 4.39454,-1.83164 5.36158,4.61758 3.95043,-0.1458 1.16045,0.97988 3.35952,5.60613 6.05677,-4.26581 6.0334,-1.23508"
       id="path66-5-9" />
    <path
       style="fill:none;stroke:#000000;stroke-width:0.264583px;stroke-linecap:butt;stroke-linejoin:miter;stroke-opacity:1"
       d="m 352.00634,565.31887 175.39093,-0.45751"
       id="path24-5-1" />
    <path
       style="fill:none;stroke:#000000;stroke-width:0.264583px;stroke-linecap:butt;stroke-linejoin:miter;stroke-opacity:1"
       d="m 371.78828,508.71599 -0.16457,70.98444"
       id="path48-3-27" />
    <path
       style="fill:none;stroke:#000000;stroke-width:0.264583px;stroke-linecap:butt;stroke-linejoin:miter;stroke-opacity:1"
       d="m 371.93431,539.42683 6.3456,-2.22275 3.13874,5.55491 4.27529,2.15982 3.18728,2.6741 3.60816,-3.41666 3.57502,-6.06048 1.13629,-8.25126 2.0857,-2.07415 1.08227,7.99571 2.15631,1.561 1.12089,-1.4366 1.75619,0.92892 3.80509,-3.7622 3.99875,-11.34777 5.25172,-2.17071 4.20952,5.5279 4.55744,3.33258 0.26388,1.51083 2.60119,-2.88193 3.45587,4.74172 3.14879,-2.58562 4.55468,5.74173 4.33085,0.47229 1.08566,3.38736 3.22381,3.54188 4.20466,-1.49651 4.43044,-8.0665 1.40943,2.90094 4.51539,0.37898 4.03462,1.96244 0.75836,1.76211 3.61219,-2.65097 4.85899,-7.0938 2.52862,-18.14258 3.25709,2.23623 3.63464,-8.8794 4.46998,13.3345 4.39454,-1.83164 5.36158,4.61758 3.95043,-0.1458 1.16045,0.97988 3.35952,5.60613 6.05677,-4.26581 6.0334,-1.23508"
       id="path66-5-0" />
    <path
       style="fill:none;stroke:#000000;stroke-width:0.264583px;stroke-linecap:butt;stroke-linejoin:miter;stroke-opacity:1"
       d="M 352.00634,669.68821 527.39727,669.2307"
       id="path24-5-9" />
    <path
       style="fill:none;stroke:#000000;stroke-width:0.264583px;stroke-linecap:butt;stroke-linejoin:miter;stroke-opacity:1"
       d="m 371.78828,613.08533 -0.16457,70.98444"
       id="path48-3-3" />
    <path
       style="fill:none;stroke:#000000;stroke-width:0.264583px;stroke-linecap:butt;stroke-linejoin:miter;stroke-opacity:1"
       d="m 371.93431,643.79617 6.3456,-2.22275 3.13874,5.55491 4.27529,2.15982 3.18728,2.6741 3.60816,-3.41666 3.57502,-6.06048 1.13629,-8.25126 2.0857,-2.07415 1.08227,7.99571 2.15631,1.561 1.12089,-1.4366 1.75619,0.92892 3.80509,-3.7622 3.99875,-11.34777 5.25172,-2.17071 4.20952,5.5279 4.55744,3.33258 0.26388,1.51083 2.60119,-2.88193 3.45587,4.74172 3.14879,-2.58562 4.55468,5.74173 4.33085,0.47229 1.08566,3.38736 3.22381,3.54188 4.20466,-1.49651 4.43044,-8.0665 1.40943,2.90094 4.51539,0.37898 4.03462,1.96244 0.75836,1.76211 3.61219,-2.65097 4.85899,-7.0938 2.52862,-18.14258 3.25709,2.23623 3.63464,-8.8794 4.46998,13.3345 4.39454,-1.83164 5.36158,4.61758 3.95043,-0.1458 1.16045,0.97988 3.35952,5.60613 6.05677,-4.26581 6.0334,-1.23508"
       id="path66-5-6" />
    <path
       style="fill:none;stroke:#000000;stroke-width:0.264583px;stroke-linecap:butt;stroke-linejoin:miter;stroke-opacity:1"
       d="m 351.75518,768.17644 175.39093,-0.45751"
       id="path24-5-0" />
    <path
       style="fill:none;stroke:#000000;stroke-width:0.264583px;stroke-linecap:butt;stroke-linejoin:miter;stroke-opacity:1"
       d="M 371.53713,711.57356 371.37256,782.558"
       id="path48-3-6" />
    <path
       style="fill:none;stroke:#000000;stroke-width:0.264583px;stroke-linecap:butt;stroke-linejoin:miter;stroke-opacity:1"
       d="m 371.68316,742.2844 6.3456,-2.22275 3.13873,5.55491 4.2753,2.15982 3.18728,2.6741 3.60816,-3.41666 3.57501,-6.06048 1.1363,-8.25126 2.0857,-2.07415 1.08227,7.99571 2.15631,1.561 1.12089,-1.4366 1.75618,0.92892 3.80509,-3.7622 3.99876,-11.34777 5.25172,-2.17071 4.20952,5.5279 4.55744,3.33258 0.26388,1.51083 2.60119,-2.88193 3.45586,4.74172 3.14879,-2.58562 4.55467,5.74173 4.33086,0.47229 1.08566,3.38736 3.2238,3.54188 4.20467,-1.49651 4.43044,-8.0665 1.40943,2.90094 4.51539,0.37898 4.03462,1.96244 0.75836,1.76211 3.61219,-2.65097 4.85899,-7.0938 2.52862,-18.14258 3.25709,2.23623 3.63464,-8.8794 4.46998,13.3345 4.39454,-1.83164 5.36158,4.61758 3.95043,-0.1458 1.16045,0.97988 3.35952,5.60613 6.05677,-4.26581 6.0334,-1.23508"
       id="path66-5-2" />
    <path
       style="fill:none;stroke:#000000;stroke-width:0.264583px;stroke-linecap:butt;stroke-linejoin:miter;stroke-opacity:1"
       d="m 351.48791,863.0088 175.39093,-0.45751"
       id="path24-5-61" />
    <path
       style="fill:none;stroke:#000000;stroke-width:0.264583px;stroke-linecap:butt;stroke-linejoin:miter;stroke-opacity:1"
       d="m 371.26985,806.40592 -0.16456,70.98444"
       id="path48-3-8" />
    <path
       style="fill:none;stroke:#000000;stroke-width:0.264583px;stroke-linecap:butt;stroke-linejoin:miter;stroke-opacity:1"
       d="m 371.41588,837.11676 6.3456,-2.22275 3.13874,5.55491 4.27529,2.15982 3.18729,2.6741 3.60816,-3.41666 3.57501,-6.06048 1.13629,-8.25126 2.08571,-2.07415 1.08226,7.99571 2.15631,1.561 1.1209,-1.4366 1.75618,0.92892 3.80509,-3.7622 3.99876,-11.34777 5.25171,-2.17071 4.20953,5.5279 4.55744,3.33258 0.26387,1.51083 2.6012,-2.88193 3.45586,4.74172 3.14879,-2.58562 4.55467,5.74173 4.33086,0.47229 1.08566,3.38736 3.2238,3.54188 4.20467,-1.49651 4.43044,-8.0665 1.40943,2.90094 4.51539,0.37898 4.03462,1.96244 0.75836,1.76211 3.61219,-2.65097 4.85899,-7.0938 2.52862,-18.14258 3.25709,2.23623 3.63464,-8.8794 4.46998,13.3345 4.39454,-1.83164 5.36158,4.61758 3.95043,-0.1458 1.16045,0.97988 3.35952,5.60613 6.05677,-4.26581 6.0334,-1.23508"
       id="path66-5-7" />
    <path
       style="fill:none;stroke:#000000;stroke-width:0.264583px;stroke-linecap:butt;stroke-linejoin:miter;stroke-opacity:1"
       d="m 350.68073,959.53069 175.39093,-0.45751"
       id="path24-5-92" />
    <path
       style="fill:none;stroke:#000000;stroke-width:0.264583px;stroke-linecap:butt;stroke-linejoin:miter;stroke-opacity:1"
       d="m 370.46267,902.92781 -0.16457,70.98444"
       id="path48-3-0" />
    <path
       style="fill:none;stroke:#000000;stroke-width:0.264583px;stroke-linecap:butt;stroke-linejoin:miter;stroke-opacity:1"
       d="m 370.6087,933.63865 6.3456,-2.22275 3.13874,5.55491 4.27529,2.15982 3.18728,2.6741 3.60816,-3.41666 3.57501,-6.06048 1.1363,-8.25126 2.0857,-2.07415 1.08227,7.9957 2.15631,1.56101 1.12089,-1.4366 1.75619,0.92892 3.80509,-3.7622 3.99875,-11.34777 5.25172,-2.17071 4.20952,5.5279 4.55744,3.33258 0.26388,1.51083 2.60119,-2.88193 3.45586,4.74172 3.14879,-2.58562 4.55469,5.74172 4.33085,0.4723 1.08566,3.38736 3.22381,3.54188 4.20466,-1.49651 4.43044,-8.0665 1.40943,2.90093 4.51539,0.37899 4.03462,1.96243 0.75836,1.76212 3.61219,-2.65098 4.85899,-7.09379 2.52862,-18.14258 3.25709,2.23623 3.63464,-8.8794 4.46998,13.3345 4.39454,-1.83164 5.36158,4.61758 3.95043,-0.1458 1.16045,0.97988 3.35952,5.60613 6.05677,-4.26581 6.0334,-1.23508"
       id="path66-5-23" />
    <path
       style="fill:none;stroke:#000000;stroke-width:0.264583px;stroke-linecap:butt;stroke-linejoin:miter;stroke-opacity:1"
       d="m 577.96907,-215.63853 c 0.29323,0.0844 0.58644,0.16888 0.87966,0.25332"
       id="path191" />
    <path
       style="fill:none;stroke:#000000;stroke-width:0.264583px;stroke-linecap:butt;stroke-linejoin:miter;stroke-opacity:1"
       d="m 576.43497,-216.61947 1.46625,1.01451"
       id="path193" />
    <path
       style="fill:none;stroke:#000000;stroke-width:0.264583px;stroke-linecap:butt;stroke-linejoin:miter;stroke-opacity:1"
       d="m 584.76204,-223.40796 c 1.20227,0.85774 2.48521,1.48569 3.79339,2.14214 4.33345,2.17452 8.49492,4.87629 12.11339,8.11733 2.03919,1.82649 3.81849,3.99147 5.73206,5.90503 0.52547,0.52547 1.2577,0.68584 1.8709,1.06908 0.5902,0.36889 2.02017,1.33635 2.67269,1.33635"
       id="path195" />
    <path
       style="fill:none;stroke:#000000;stroke-width:0.264583px;stroke-linecap:butt;stroke-linejoin:miter;stroke-opacity:1"
       d="m 350.24176,1053.7594 175.39094,-0.4575"
       id="path24-5-92-7" />
    <path
       style="fill:none;stroke:#000000;stroke-width:0.264583px;stroke-linecap:butt;stroke-linejoin:miter;stroke-opacity:1"
       d="m 370.0237,997.15583 -0.16457,70.98517"
       id="path48-3-0-5" />
    <path
       style="fill:none;stroke:#000000;stroke-width:0.264583px;stroke-linecap:butt;stroke-linejoin:miter;stroke-opacity:1"
       d="m 370.16973,1027.8674 6.3456,-2.2228 3.13874,5.555 4.27529,2.1598 3.18728,2.6741 3.60816,-3.4167 3.57501,-6.0605 1.1363,-8.2512 2.0857,-2.0742 1.08227,7.9957 2.15631,1.561 1.12089,-1.4366 1.75619,0.929 3.80509,-3.7622 3.99875,-11.348 5.25172,-2.1708 4.20952,5.5282 4.55744,3.3325 0.26388,1.5109 2.60119,-2.882 3.45586,4.7418 3.14879,-2.5857 4.55469,5.7418 4.33085,0.4723 1.08566,3.3873 3.22381,3.5419 4.20467,-1.4965 4.43044,-8.0665 1.40943,2.9009 4.51539,0.379 4.03462,1.9625 0.75836,1.7621 3.61219,-2.651 4.85899,-7.0938 2.52862,-18.1433 3.25709,2.2363 3.63464,-8.87947 4.46998,13.33487 4.39454,-1.8317 5.36158,4.6178 3.95043,-0.1458 1.16045,0.9799 3.35952,5.6063 6.05677,-4.2659 6.0334,-1.2351"
       id="path66-5-23-9" />
    <path
       style="fill:none;stroke:#000000;stroke-width:0.264583px;stroke-linecap:butt;stroke-linejoin:miter;stroke-opacity:1"
       d="m 350.32224,1180.8481 175.39094,-0.4575"
       id="path24-5-92-7-2" />
    <path
       style="fill:none;stroke:#000000;stroke-width:0.264583px;stroke-linecap:butt;stroke-linejoin:miter;stroke-opacity:1"
       d="m 370.10418,1124.2445 -0.16457,70.9852"
       id="path48-3-0-5-2" />
    <path
       style="fill:none;stroke:#000000;stroke-width:0.264583px;stroke-linecap:butt;stroke-linejoin:miter;stroke-opacity:1"
       d="m 370.25021,1154.9561 6.3456,-2.2228 3.13874,5.555 4.27529,2.1598 3.18728,2.6741 3.60816,-3.4167 3.57501,-6.0605 1.1363,-8.2512 2.0857,-2.0742 1.08227,7.9957 2.15631,1.561 1.12089,-1.4366 1.75619,0.929 3.80509,-3.7622 3.99875,-11.348 5.25172,-2.1708 4.20952,5.5282 4.55744,3.3325 0.26388,1.5109 2.60119,-2.882 3.45586,4.7418 3.14879,-2.5857 4.55469,5.7418 4.33085,0.4723 1.08566,3.3873 3.22381,3.5419 4.20467,-1.4965 4.43044,-8.0665 1.40943,2.9009 4.51539,0.379 4.03462,1.9625 0.75836,1.7621 3.61219,-2.651 4.85899,-7.0938 2.52862,-18.1433 3.25709,2.2363 3.63464,-8.8795 4.46998,13.3349 4.39454,-1.8317 5.36158,4.6178 3.95043,-0.1458 1.16045,0.9799 3.35952,5.6063 6.05677,-4.2659 6.0334,-1.2351"
       id="path66-5-23-9-8" />
    <text
       xml:space="preserve"
       style="font-style:normal;font-weight:normal;font-size:22.0441px;line-height:1.25;font-family:sans-serif;fill:#000000;fill-opacity:1;stroke:none;stroke-width:0.551103"
       x="383.7092"
       y="-127.48342"
       id="text255"
       transform="scale(0.96722434,1.0338863)"><tspan
         sodipodi:role="line"
         id="tspan253"
         x="383.7092"
         y="-127.48342"
         style="stroke-width:0.551103">Orderzusätze</tspan></text>
    <text
       xml:space="preserve"
       style="font-style:normal;font-weight:normal;font-size:10.5833px;line-height:1.25;font-family:sans-serif;fill:#000000;fill-opacity:1;stroke:none;stroke-width:0.264583"
       x="370.87106"
       y="-64.019913"
       id="text259"><tspan
         sodipodi:role="line"
         id="tspan257"
         x="370.87106"
         y="-64.019913"
         style="stroke-width:0.264583">Sind Werkzeuge für das </tspan><tspan
         sodipodi:role="line"
         x="370.87106"
         y="-50.790787"
         style="stroke-width:0.264583"
         id="tspan261">Risikomanagement beim Trading</tspan></text>
    <text
       xml:space="preserve"
       style="font-style:normal;font-weight:normal;font-size:10.5833px;line-height:1.25;font-family:sans-serif;fill:#000000;fill-opacity:1;stroke:none;stroke-width:0.264583"
       x="372.43066"
       y="27.678705"
       id="text265"><tspan
         sodipodi:role="line"
         id="tspan263"
         x="372.43066"
         y="27.678705"
         style="stroke-width:0.264583">Limit</tspan><tspan
         sodipodi:role="line"
         x="372.43066"
         y="40.907829"
         style="stroke-width:0.264583"
         id="tspan267">Stop</tspan></text>
    <path
       style="fill:none;stroke:#000000;stroke-width:0.264583px;stroke-linecap:butt;stroke-linejoin:miter;stroke-opacity:1"
       d="m 368.64649,122.16205 57.53026,0.21843"
       id="path275" />
    <path
       style="fill:none;stroke:#000000;stroke-width:0.264583px;stroke-linecap:butt;stroke-linejoin:miter;stroke-opacity:1"
       d="m 397.65848,159.50023 1.23034,-63.940446"
       id="path277" />
    <path
       style="fill:none;stroke:#000000;stroke-width:0.264583px;stroke-linecap:butt;stroke-linejoin:miter;stroke-opacity:1"
       d="m 401.10743,122.4447 0.003,32.94178"
       id="path279" />
    <path
       style="fill:none;stroke:#000000;stroke-width:0.264583px;stroke-linecap:butt;stroke-linejoin:miter;stroke-opacity:1"
       d="m 426.17675,122.38048 38.7581,0.27477"
       id="path281" />
    <path
       style="fill:none;stroke:#000000;stroke-width:0.264583px;stroke-linecap:butt;stroke-linejoin:miter;stroke-opacity:1"
       d="m 405.07864,266.94111 -0.11105,-74.29835"
       id="path283" />
    <path
       style="fill:none;stroke:#000000;stroke-width:0.264583px;stroke-linecap:butt;stroke-linejoin:miter;stroke-opacity:1"
       d="m 368.29857,212.09621 62.22605,-0.11064"
       id="path287" />
    <path
       style="fill:none;stroke:#000000;stroke-width:0.264583px;stroke-linecap:butt;stroke-linejoin:miter;stroke-opacity:1"
       d="m 430.52462,211.98557 77.78324,-0.0558"
       id="path291" />
    <path
       style="fill:none;stroke:#000000;stroke-width:0.264583px;stroke-linecap:butt;stroke-linejoin:miter;stroke-opacity:1"
       d="m 450.47359,329.03592 c 3.62828,0.18388 54.32454,-0.53729 54.32454,-0.53729"
       id="path293" />
    <path
       style="fill:none;stroke:#000000;stroke-width:0.264583px;stroke-linecap:butt;stroke-linejoin:miter;stroke-opacity:1"
       d="m 365.65448,424.20569 89.49319,-0.0345"
       id="path295" />
    <path
       style="fill:none;stroke:#000000;stroke-width:0.264583px;stroke-linecap:butt;stroke-linejoin:miter;stroke-opacity:1"
       d="m 417.01537,464.2576 c 0.46352,-1.40206 -0.88043,-71.9936 -0.88043,-71.9936"
       id="path297" />
    <path
       style="fill:none;stroke:#000000;stroke-width:0.264583px;stroke-linecap:butt;stroke-linejoin:miter;stroke-opacity:1"
       d="m 445.02956,577.72842 c 0.6269,-1.62029 -0.63053,-71.53916 -0.63053,-71.53916"
       id="path301" />
    <path
       style="fill:none;stroke:#000000;stroke-width:0.264583px;stroke-linecap:butt;stroke-linejoin:miter;stroke-opacity:1"
       d="m 444.99752,528.25157 53.78476,-0.24529"
       id="path303" />
    <path
       style="fill:none;stroke:#000000;stroke-width:0.264583px;stroke-linecap:butt;stroke-linejoin:miter;stroke-opacity:1"
       d="m 445.09692,525.27768 c 52.65222,0.14841 52.65222,0.14841 52.65222,0.14841"
       id="path305" />
    <path
       style="fill:none;stroke:#000000;stroke-width:0.264583px;stroke-linecap:butt;stroke-linejoin:miter;stroke-opacity:1"
       d="m 469.87712,678.33566 -0.26535,-87.26027"
       id="path307" />
    <path
       style="fill:none;stroke:#000000;stroke-width:0.264583px;stroke-linecap:butt;stroke-linejoin:miter;stroke-opacity:1"
       d="m 469.24219,644.15825 c 2.01366,1.95485 56.45163,1.0382 56.45163,1.0382"
       id="path309" />
    <path
       style="fill:none;stroke:#000000;stroke-width:0.264583px;stroke-linecap:butt;stroke-linejoin:miter;stroke-opacity:1"
       d="M 469.95995,648.84545 524.736,649.1271"
       id="path311" />
    <path
       style="fill:none;stroke:#000000;stroke-width:0.264583px;stroke-linecap:butt;stroke-linejoin:miter;stroke-opacity:1"
       d="m 505.31027,625.60236 5.72074,55.72673"
       id="path313" />
    <path
       style="fill:none;stroke:#000000;stroke-width:0.264583px;stroke-linecap:butt;stroke-linejoin:miter;stroke-opacity:1"
       d="m 420.9548,782.14325 -0.42867,-84.6114"
       id="path317" />
    <path
       style="fill:none;stroke:#000000;stroke-width:0.264583px;stroke-linecap:butt;stroke-linejoin:miter;stroke-opacity:1"
       d="m 421.07294,743.23381 67.33466,0.0249"
       id="path319" />
    <path
       style="fill:none;stroke:#000000;stroke-width:0.264583px;stroke-linecap:butt;stroke-linejoin:miter;stroke-opacity:1"
       d="M 416.77114,724.26967 505.0591,724.0906"
       id="path321" />
    <path
       style="fill:none;stroke:#000000;stroke-width:0.264583px;stroke-linecap:butt;stroke-linejoin:miter;stroke-opacity:1"
       d="m 448.33471,753.71422 -0.26445,-34.02867"
       id="path323" />
    <path
       style="fill:none;stroke:#000000;stroke-width:0.264583px;stroke-linecap:butt;stroke-linejoin:miter;stroke-opacity:1"
       d="m 452.43498,723.31661 c 0.38166,0.54634 0.54176,2.07365 1.03611,2.46915 0.20944,0.16756 0.53263,-0.0709 0.79375,-0.1323 1.46444,-0.34419 2.8915,-0.8727 4.38094,-1.08394 2.67388,-0.37923 5.37779,-0.51319 8.07316,-0.68244 0.92966,-0.0584 1.92582,-0.33629 2.79452,0 1.1279,0.43664 -1.26124,4.16772 0.54745,3.03712 2.63285,-1.64581 5.05931,-3.62341 7.7709,-5.13598 1.45864,-0.81367 3.11361,-1.21018 4.67394,-1.80605 0.14266,-0.0545 0.35764,-0.27675 0.43466,-0.14486 1.0383,1.77782 0.66103,3.32394 1.05473,5.31355 0.0428,0.21627 0.19286,0.6128 0.39688,0.52917 4.22439,-1.73226 3.56907,-2.85787 7.76094,-4.8246 0.20005,-0.0939 0.35274,0.31316 0.39934,0.52917 0.11234,0.52101 0.26609,3.83296 0.7272,4.18928 0.81,0.62595 1.11017,-0.66149 1.58409,-0.65545 0.34004,0.004 1.7294,0.15171 1.82909,0.25146"
       id="path325" />
    <path
       style="fill:none;stroke:#000000;stroke-width:0.264583px;stroke-linecap:butt;stroke-linejoin:miter;stroke-opacity:1"
       d="m 444.15524,873.59111 c 0.67019,-1.90225 -0.17388,-76.65818 -0.17388,-76.65818"
       id="path327" />
    <path
       style="fill:none;stroke:#000000;stroke-width:0.264583px;stroke-linecap:butt;stroke-linejoin:miter;stroke-opacity:1"
       d="m 444.22171,845.50577 61.04932,-0.35552"
       id="path329" />
    <path
       style="fill:none;stroke:#000000;stroke-width:0.264583px;stroke-linecap:butt;stroke-linejoin:miter;stroke-opacity:1"
       d="m 444.76672,816.32718 68.61067,-0.69554"
       id="path331" />
    <path
       style="fill:none;stroke:#000000;stroke-width:0.264583px;stroke-linecap:butt;stroke-linejoin:miter;stroke-opacity:1"
       d="m 478.44598,802.32548 1.96157,50.29017"
       id="path335" />
    <path
       style="fill:none;stroke:#000000;stroke-width:0.264583px;stroke-linecap:butt;stroke-linejoin:miter;stroke-opacity:1"
       d="m 482.58399,842.1105 c 0.0964,0.78108 0.17282,1.56486 0.28911,2.34323 0.12946,0.86646 0.31207,2.11413 0.56591,2.03825 0.29896,-0.0893 0.43778,-0.44469 0.65837,-0.66532 0.99057,-0.99079 1.96082,-2.00245 2.97516,-2.96892 0.0132,-0.0127 1.26793,-0.97827 1.34498,-0.92144 0.24945,0.18386 -0.0101,0.6199 0,0.92962 0.0393,1.21555 0.0718,2.43173 0.14806,3.6455 0.0172,0.27462 -0.13176,0.73748 0.13229,0.81479 0.30896,0.0904 0.6014,-0.28816 0.79926,-0.54208 1.12958,-1.44986 2.12539,-2.99963 3.14928,-4.52596 0.36295,-0.5411 0.55038,-1.21153 1.00957,-1.67376 0.12745,-0.12829 0.11872,0.34624 0.12988,0.52674 0.0847,1.36715 0.10949,2.73735 0.15698,4.10628 0.01,0.27307 -0.10642,1.17583 0.52917,1.08056 2.13357,-0.31978 1.90627,-1.31009 3.2812,-2.45854 0.075,-0.0627 0.10221,0.16989 0.1266,0.26458 0.30689,1.19179 0.55401,3.63869 1.78671,4.49953 0.85553,0.59746 2.69764,-2.8893 2.74132,-2.93526 0.46961,-0.49419 0.0508,0.0254 0.36663,-0.0214 0.83939,-0.12403 1.66436,-0.33115 2.49656,-0.49673"
       id="path337" />
    <path
       style="fill:none;stroke:#000000;stroke-width:0.264583px;stroke-linecap:butt;stroke-linejoin:miter;stroke-opacity:1"
       d="m 434.71171,966.29266 -0.65448,-72.52692"
       id="path339" />
    <path
       style="fill:none;stroke:#000000;stroke-width:0.264583px;stroke-linecap:butt;stroke-linejoin:miter;stroke-opacity:1"
       d="m 435.36867,923.41601 c -0.85045,-3.10753 -0.79658,-1.86322 0.87117,-2.13945 0.24595,-0.0407 0.40311,-0.25305 0.63142,-0.25305 0.0352,0 -0.0993,-0.0346 -0.10549,0 -0.0254,0.1415 -0.10694,0.33521 0,0.43128 0.0355,0.0318 0.23151,0.0772 0.25702,0.10625 0.15875,0.29419 0.0691,0.18278 0.26292,0.37746 0.23548,0.23648 0.60266,0.61288 0.74826,0.90117 0.038,0.0753 -0.0315,0.17478 0,0.25305 0.053,0.1317 0.44001,0.46328 0.51954,0.55901 0.13102,0.15771 0.44974,0.79719 0.53893,0.98946 0.12097,0.26075 0.51829,0.50519 0.62497,0.68665 0.003,0.004 -0.003,0.23407 0,0.23913 0.10242,0.21534 0.43524,0.66378 0.54253,0.77583 0.0854,0.0892 3.69962,-0.0879 3.78304,0 0.0537,0.0566 0.21069,0.0282 0.25826,0.081 0.32081,0.3564 0.62584,0.57767 1.03889,0.85127 0.25974,0.17206 0.62777,0.1755 0.88992,0.36582 0.0243,0.0177 0,0.24235 0,0.27813 0,0.69278 0.12803,1.96588 0.36433,2.46938 0.0867,0.18468 0.24675,0.28308 0.3392,0.43966 0.13872,0.235 0.008,0.54909 0.24648,0.79515 0.0803,0.083 0.25006,0.0937 0.32917,0.17756 0.42249,0.44789 1.00362,1.24267 1.00362,1.86666"
       id="path341" />
    <path
       style="fill:none;stroke:#000000;stroke-width:0.264583px;stroke-linecap:butt;stroke-linejoin:miter;stroke-opacity:1"
       d="m 448.51285,933.66742 c 0.091,-0.12287 0.39587,-0.2776 0.273,-0.36859 -0.12288,-0.091 -0.4259,0.36859 -0.273,0.36859 0.34102,0 1.05429,-0.62632 1.39134,-0.28953 0.0387,0.0387 0.19645,-0.0393 0.23434,0 0.16534,0.17148 0.62608,0.28488 0.99949,0.28488 0.1556,0 0.39899,0.0512 0.53692,0 0.1629,-0.0605 1.65079,-0.56915 1.76818,-0.37738 0.14513,0.23709 0.59934,-0.0511 0.8522,0.0884 0.0737,0.0406 0.46503,0.0296 0.49609,0.0682 0.21844,0.27125 3.33431,0.61547 3.83667,0.43148 0.29327,-0.10739 0.46607,-0.12237 0.7779,-0.12237"
       id="path343" />
    <path
       style="fill:none;stroke:#000000;stroke-width:0.264583px;stroke-linecap:butt;stroke-linejoin:miter;stroke-opacity:1"
       d="m 454.65526,966.64205 -0.83632,-53.03986"
       id="path345" />
    <path
       style="fill:none;stroke:#000000;stroke-width:0.264583px;stroke-linecap:butt;stroke-linejoin:miter;stroke-opacity:1"
       d="m 408.12722,966.02533 c 0.47517,-0.80444 -0.74189,-70.74334 -0.74189,-70.74334"
       id="path347" />
    <path
       style="fill:none;stroke:#000000;stroke-width:0.264583px;stroke-linecap:butt;stroke-linejoin:miter;stroke-opacity:1"
       d="m 407.77964,922.3857 4.43881,-0.16476"
       id="path349" />
    <path
       style="fill:none;stroke:#000000;stroke-width:0.264583px;stroke-linecap:butt;stroke-linejoin:miter;stroke-opacity:1"
       d="m 471.59486,1063.9233 -1.06164,-76.51117"
       id="path351" />
    <path
       style="fill:none;stroke:#000000;stroke-width:0.264583px;stroke-linecap:butt;stroke-linejoin:miter;stroke-opacity:1"
       d="m 471.21825,1028.2999 c 0.55849,0.1071 1.13062,0.1526 1.5589,-0.1693 0.0404,-0.03 0.0813,-0.1654 0.1759,-0.2161 0.80814,-0.4336 1.60348,-0.8154 2.29417,-1.4467 0.32518,-0.2973 -0.14777,0.078 0.25464,-0.5243 0.0241,-0.036 0.1,0.031 0.13068,0 0.26032,-0.2619 0.0574,-0.2118 0.12983,-0.4769 0.0593,-0.2167 0.31969,-0.4569 0.36152,-0.6565 0.0813,-0.3876 0.0614,-0.8915 0.22551,-1.2669 0.27911,-0.6381 1.18269,-1.0777 1.49106,-1.931 0.12417,-0.3436 -0.0975,-0.8083 0,-1.1621 0.0514,-0.1866 0.20643,-0.3348 0.2531,-0.5226 0.0311,-0.1252 -0.068,-0.2774 0,-0.387 0.31662,-0.5101 0.45797,-1.4525 0.71398,-2.1588 0.13017,-0.3591 0.14504,-0.8287 0.24765,-1.1971 0.071,-0.2548 -0.10454,-0.6319 0,-0.8737 0.0765,-0.177 0.19489,-0.336 0.25468,-0.5193 0.0873,-0.2674 0,-0.7796 0,-1.0662 0,-0.9565 -0.17205,-3.9373 0,-4.5246 0.30115,-1.0276 0.26022,-2.1001 0.75512,-3.0037 0.13309,-0.2429 0.0501,-2.0761 0.21318,-2.6051 0.14086,-0.4567 1.28751,-0.028 1.55797,-0.028 0.34372,0 0.67014,0 0.66974,0 -0.2382,-0.3426 -0.51424,-0.6573 -0.77136,-0.9859"
       id="path353" />
    <path
       style="fill:none;stroke:#000000;stroke-width:0.264583px;stroke-linecap:butt;stroke-linejoin:miter;stroke-opacity:1"
       d="m 481.73452,1002.5781 c -0.0772,0.3604 -0.17947,0.7164 -0.23144,1.0813 -0.003,0.019 0.59899,-0.1853 0.6775,-0.1853 0.53236,0 0.78983,-0.058 1.29384,-0.2063 0.11403,-0.034 0.37539,0 0.48725,0 0.0316,0 0.12581,-0.01 0.0948,0 -0.51565,0.1049 -1.03375,0.1974 -1.55062,0.2962"
       id="path355" />
    <path
       style="fill:none;stroke:#000000;stroke-width:0.264583px;stroke-linecap:butt;stroke-linejoin:miter;stroke-opacity:1"
       d="m 484.05647,1003.2678 c 0.58658,-0.4304 1.11665,-0.8261 1.3212,-1.3648 0.0273,-0.072 -0.0327,-0.1613 0,-0.231 0.0153,-0.033 0.0983,0.035 0.10845,0 0.0973,-0.3319 -0.0116,-0.4265 0.23474,-0.6818"
       id="path357" />
    <path
       style="fill:none;stroke:#000000;stroke-width:0.264583px;stroke-linecap:butt;stroke-linejoin:miter;stroke-opacity:1"
       d="m 485.72086,1000.9902 c -0.11049,-0.01 -0.32292,-0.136 -0.33144,-0.026 -0.008,0.1105 0.31776,0.1355 0.33144,0.026 0.11681,-0.9403 -0.32155,-0.7614 -0.0949,-1.45896 0.0314,-0.0967 -0.006,-0.40646 0,-0.30496 0.0331,0.5879 0.0632,1.17592 0.0949,1.76392"
       id="path359" />
    <path
       style="fill:none;stroke:#000000;stroke-width:0.264583px;stroke-linecap:butt;stroke-linejoin:miter;stroke-opacity:1"
       d="m 485.72086,1000.9902 c 0.20032,-0.4713 0.35483,-0.9648 0.60095,-1.41388 0.0463,-0.0846 1.10762,0 1.20864,0 0.33687,0 0.57695,-0.0422 0.89141,-0.12001 0.75501,-0.18691 3.55642,0 4.45736,0"
       id="path361" />
    <path
       style="fill:none;stroke:#000000;stroke-width:0.264583px;stroke-linecap:butt;stroke-linejoin:miter;stroke-opacity:1"
       d="m 487.47412,982.42865 2.23229,77.81325"
       id="path363" />
    <path
       style="fill:none;stroke:#000000;stroke-width:0.264583px;stroke-linecap:butt;stroke-linejoin:miter;stroke-opacity:1"
       d="m 387.58926,1060.3237 c -0.13229,-0.8748 -0.47588,-73.69754 -0.47588,-73.69754"
       id="path369" />
    <path
       style="fill:none;stroke:#000000;stroke-width:0.264583px;stroke-linecap:butt;stroke-linejoin:miter;stroke-opacity:1"
       d="m 387.11663,1036.0335 c 0.39537,0.7379 0.73814,1.5066 1.18608,2.2139 0.0334,0.053 0.0765,-0.1044 0.13229,-0.1323 1.652,-0.826 1.9055,-1.0211 3.175,-2.3812 0.57256,-0.6135 1.37409,-1.2891 1.85208,-1.9844 1.29895,-1.8894 1.80562,-4.3048 2.24896,-6.4823 0.0951,-0.4671 -0.09,-0.9891 0,-1.4573 0.0921,-0.4789 0.29102,-0.9605 0.38455,-1.4283 0.0513,-0.2567 -0.0428,-0.5272 0,-0.7855 0.15803,-0.9543 0.33123,-1.8968 0.52252,-2.8459 0.0735,-0.3647 -0.0225,-0.6336 0.0879,-0.9398 0.10107,-0.2806 0.96517,0.3755 1.92283,0.6309 0.26715,0.071 2.4271,0.2925 2.70983,0.1323 0.18971,-0.1076 0.34097,-0.274 0.5275,-0.387 0.21582,-0.1307 0.56164,-0.1912 0.71152,-0.3647"
       id="path371" />
    <path
       style="fill:none;stroke:#000000;stroke-width:0.264583px;stroke-linecap:butt;stroke-linejoin:miter;stroke-opacity:1"
       d="m 398.36515,1068.7858 -0.0699,-71.02579"
       id="path373" />
    <path
       style="fill:none;stroke:#000000;stroke-width:0.264583px;stroke-linecap:butt;stroke-linejoin:miter;stroke-opacity:1"
       d="m 415.65239,1187.0129 c 0,-0.7538 -1.61578,-78.3563 -1.61578,-78.3563"
       id="path375" />
    <path
       style="fill:none;stroke:#000000;stroke-width:0.264583px;stroke-linecap:butt;stroke-linejoin:miter;stroke-opacity:1"
       d="m 409.96004,1150.9861 40.29504,-0.041"
       id="path377" />
    <path
       style="fill:none;stroke:#000000;stroke-width:0.264583px;stroke-linecap:butt;stroke-linejoin:miter;stroke-opacity:1"
       d="m 446.02794,1188.3791 -2.8656,-69.4061"
       id="path379" />
    <path
       style="fill:none;stroke:#000000;stroke-width:0.264583px;stroke-linecap:butt;stroke-linejoin:miter;stroke-opacity:1"
       d="m 445.12219,1160.4524 66.72797,-0.8127"
       id="path381" />
    <path
       style="fill:none;stroke:#000000;stroke-width:0.264583px;stroke-linecap:butt;stroke-linejoin:miter;stroke-opacity:1"
       d="m 443.67685,1129.0987 73.81578,-2.3298"
       id="path383" />
  </g>
</svg>
